<?xml version="1.0" encoding="utf-8"?>
<!-- Generator: Adobe Illustrator 25.0.1, SVG Export Plug-In . SVG Version: 6.00 Build 0)  -->
<svg version="1.1" id="Layer_2" xmlns="http://www.w3.org/2000/svg" xmlns:xlink="http://www.w3.org/1999/xlink" x="0px" y="0px"
	 viewBox="0 0 442.5 413" style="enable-background:new 0 0 442.5 413;" xml:space="preserve">
<style type="text/css">
	.st0{fill:#AF76EA;}
	.st1{fill:url(#SVGID_1_);}
	.st2{fill:url(#SVGID_2_);}
	.st3{fill:url(#SVGID_3_);}
	.st4{fill:#BF90EE;}
	.st5{opacity:0.23;fill:url(#SVGID_4_);}
</style>
<path class="st0" d="M221.5,286.4c-0.2,0-0.3,0-0.5,0c-3.7-0.2-6.9-2.7-8-6.3l-17.3-56l-56-17.3c-3.6-1.1-6-4.3-6.3-8
	s1.9-7.2,5.3-8.7l142-62.8c3.4-1.5,7.3-0.8,9.9,1.9c2.6,2.6,3.3,6.5,1.9,9.9l-62.8,142C228.3,284.3,225.1,286.4,221.5,286.4z"/>
<g>
	<g>
		<g>
			<g>
				<linearGradient id="SVGID_1_" gradientUnits="userSpaceOnUse" x1="66.8942" y1="275.1066" x2="66.8942" y2="400.3094">
					<stop  offset="0" style="stop-color:#FFB1EF"/>
					<stop  offset="3.883648e-02" style="stop-color:#F7ABF0"/>
					<stop  offset="0.2532" style="stop-color:#CC8AF3"/>
					<stop  offset="0.4616" style="stop-color:#AB71F6"/>
					<stop  offset="0.6599" style="stop-color:#935FF8"/>
					<stop  offset="0.8441" style="stop-color:#8554FA"/>
					<stop  offset="1" style="stop-color:#8050FA"/>
				</linearGradient>
				<path class="st1" d="M96.2,338.3l-58.6,70.1l19.2-118c0.4,0.7,0.8,1.4,1.2,2c0.5,0.9,1.1,1.8,1.6,2.7c0.2,0.4,0.5,0.8,0.8,1.2
					c0.7,1,1.3,2.1,2,3.1c2.3,3.4,4.6,6.8,7.1,10c1,1.3,2,2.6,3,3.9c0.2,0.2,0.3,0.4,0.5,0.6c0.9,1.1,1.7,2.2,2.7,3.3
					c0.3,0.4,0.7,0.9,1.1,1.3c0.8,0.9,1.5,1.8,2.3,2.7c0.3,0.4,0.7,0.8,1,1.1c0.5,0.6,1.1,1.2,1.6,1.8c0.7,0.8,1.4,1.5,2.1,2.3
					c1.1,1.1,2.1,2.2,3.2,3.3c1.1,1.1,2.2,2.1,3.3,3.2c0.7,0.7,1.4,1.3,2.1,1.9c0.7,0.7,1.5,1.4,2.2,2c0.4,0.4,0.8,0.7,1.2,1
					C95.8,338,96,338.2,96.2,338.3z"/>
				<linearGradient id="SVGID_2_" gradientUnits="userSpaceOnUse" x1="92.0483" y1="408.4275" x2="92.0483" y2="330.6715">
					<stop  offset="0" style="stop-color:#FFB1EF"/>
					<stop  offset="3.883648e-02" style="stop-color:#F7ABF0"/>
					<stop  offset="0.2532" style="stop-color:#CC8AF3"/>
					<stop  offset="0.4616" style="stop-color:#AB71F6"/>
					<stop  offset="0.6599" style="stop-color:#935FF8"/>
					<stop  offset="0.8441" style="stop-color:#8554FA"/>
					<stop  offset="1" style="stop-color:#8050FA"/>
				</linearGradient>
				<path class="st2" d="M146.5,370L37.6,408.4l58.6-70.1c0.6,0.5,1.2,1,1.7,1.5c0.6,0.5,1.1,1,1.7,1.5c1,0.9,2.1,1.7,3.1,2.5
					c0.2,0.2,0.4,0.3,0.6,0.4c1.2,1,2.5,2,3.8,2.9c0.1,0.1,0.2,0.1,0.3,0.2c1.9,1.4,3.8,2.8,5.7,4.1c1,0.7,2.1,1.4,3.2,2.1
					c0.3,0.2,0.7,0.5,1,0.7c1.1,0.7,2.2,1.4,3.3,2.1c0.4,0.3,0.9,0.6,1.3,0.8c1,0.6,1.9,1.2,2.9,1.7c2,1.2,4.1,2.4,6.2,3.5
					c1.6,0.9,3.2,1.7,4.8,2.5c0.1,0.1,0.2,0.1,0.3,0.2c1.6,0.8,3.2,1.6,4.8,2.3c1.7,0.8,3.4,1.6,5.1,2.3
					C146.3,370,146.4,370,146.5,370z"/>
			</g>
			<g>
				<linearGradient id="SVGID_3_" gradientUnits="userSpaceOnUse" x1="50.984" y1="232.5508" x2="410.7506" y2="232.5508">
					<stop  offset="0" style="stop-color:#FFB1EF"/>
					<stop  offset="3.883648e-02" style="stop-color:#F7ABF0"/>
					<stop  offset="0.2532" style="stop-color:#CC8AF3"/>
					<stop  offset="0.4616" style="stop-color:#AB71F6"/>
					<stop  offset="0.6599" style="stop-color:#935FF8"/>
					<stop  offset="0.8441" style="stop-color:#8554FA"/>
					<stop  offset="1" style="stop-color:#8050FA"/>
				</linearGradient>
				<path class="st3" d="M410.8,218.1c-0.2,1.3-0.3,2.6-0.5,3.9c0,0.2-0.1,0.4-0.1,0.6c-0.1,1-0.3,1.9-0.4,2.8
					c-0.1,0.7-0.2,1.4-0.3,2.1c-0.2,1.2-0.4,2.4-0.7,3.6c-0.2,1.3-0.5,2.5-0.8,3.8c-0.3,1.3-0.5,2.6-0.9,3.9
					c-0.2,0.7-0.3,1.4-0.5,2.2c-0.2,1-0.5,2-0.8,3c0,0,0,0.1,0,0.1c-0.4,1.4-0.8,2.7-1.1,4.1c-0.4,1.4-0.8,2.8-1.3,4.2
					c-0.4,1.4-0.9,2.8-1.3,4.1c-0.9,2.7-1.9,5.4-3,8.1c-0.5,1.3-1.1,2.7-1.6,4c-0.5,1.3-1.1,2.6-1.7,3.9c-0.6,1.3-1.2,2.6-1.8,3.9
					c-0.6,1.3-1.2,2.6-1.9,3.8c-0.7,1.3-1.3,2.5-2,3.8c-0.7,1.3-1.3,2.5-2,3.7c-0.7,1.2-1.3,2.3-2,3.5c-0.1,0.2-0.2,0.3-0.3,0.5
					c-0.7,1.1-1.3,2.3-2,3.4c-0.8,1.2-1.5,2.4-2.3,3.6c-0.8,1.2-1.5,2.4-2.4,3.5c-0.8,1.2-1.6,2.3-2.4,3.5c-1.6,2.3-3.3,4.6-5.1,6.8
					c0,0-0.1,0.1-0.1,0.1c-1.5,1.9-3.1,3.8-4.6,5.6c-1.1,1.3-2.3,2.7-3.5,4c-0.7,0.8-1.5,1.6-2.2,2.4c-1.3,1.4-2.6,2.8-4,4.1
					c-0.8,0.9-1.7,1.7-2.5,2.5c-0.1,0.1-0.1,0.2-0.2,0.2c-0.8,0.7-1.5,1.4-2.3,2.2c-0.5,0.5-1,0.9-1.4,1.3c-0.7,0.7-1.5,1.4-2.2,2.1
					c-0.1,0.1-0.2,0.2-0.3,0.3c-1,0.9-2,1.7-3,2.6c-1.1,0.9-2.2,1.8-3.2,2.7c-1.1,0.9-2.2,1.8-3.3,2.6c-1.3,1-2.5,2-3.8,2.9
					c-2.1,1.6-4.3,3.1-6.5,4.6c-2.9,2-5.9,3.9-9,5.7c-1,0.6-2,1.2-3,1.7c-1.1,0.7-2.2,1.3-3.3,1.9c-1,0.5-2,1.1-2.9,1.6
					c-1.2,0.6-2.3,1.2-3.5,1.8c-0.2,0.1-0.5,0.3-0.8,0.4c-0.9,0.4-1.7,0.8-2.6,1.2c-0.7,0.3-1.4,0.7-2.2,1
					c-9,4.2-18.5,7.6-28.2,10.4c-1.2,0.3-2.5,0.7-3.7,1c-1.5,0.4-3,0.8-4.6,1.1c0,0-0.1,0-0.1,0c-1.3,0.3-2.5,0.6-3.8,0.8
					c-0.6,0.1-1.2,0.3-1.9,0.4c-0.9,0.2-1.7,0.3-2.6,0.5c-0.9,0.2-1.8,0.3-2.7,0.5c-0.4,0.1-0.9,0.2-1.3,0.2
					c-1.1,0.2-2.2,0.3-3.3,0.5c-0.3,0.1-0.6,0.1-1,0.1c-1.3,0.2-2.6,0.4-3.9,0.5c-0.1,0-0.2,0-0.3,0c-1.2,0.1-2.3,0.3-3.5,0.4
					c-1,0.1-2,0.2-3.1,0.3c-0.5,0-1,0.1-1.4,0.1c-1.3,0.1-2.6,0.2-4,0.2c-0.2,0-0.4,0-0.6,0c-1,0-1.9,0.1-2.8,0.1
					c-0.8,0-1.5,0.1-2.3,0.1c-1.5,0-3,0.1-4.6,0.1c-5,0-9.9-0.2-14.8-0.6c-3.2-0.2-6.3-0.6-9.4-1c-1.7-0.2-3.4-0.5-5.1-0.7
					c-1.6-0.2-3.2-0.5-4.8-0.8c-5.3-1-10.5-2.1-15.6-3.5c-1-0.3-2-0.5-3-0.8c-1.5-0.4-3.1-0.9-4.6-1.4c-1.5-0.5-3-1-4.5-1.5
					c-3-1-5.9-2.1-8.8-3.3c-1.5-0.6-2.9-1.2-4.4-1.8c-0.2,0-0.3-0.1-0.4-0.2c-1.7-0.7-3.4-1.5-5.1-2.3c-1.6-0.8-3.2-1.5-4.8-2.3
					c-0.1-0.1-0.2-0.1-0.3-0.2c-1.6-0.8-3.2-1.6-4.8-2.5c-2.1-1.1-4.2-2.3-6.2-3.5c-1-0.5-1.9-1.1-2.9-1.7c-0.4-0.2-0.9-0.5-1.3-0.8
					c-1.1-0.7-2.2-1.4-3.3-2.1c-0.3-0.2-0.7-0.4-1-0.7c-1.1-0.7-2.1-1.4-3.2-2.1c-2-1.3-3.9-2.7-5.7-4.1
					c-45.9-36.6-65.8-96.5-52.3-152.5c3.3-13.7,8.6-27.2,16.1-40.1c3.8-6.6,8-12.8,12.7-18.6c19.6-24.7,46-41.8,74.8-50.4
					c37.3-11,78.8-7.7,115.3,12.5c-15.6-8.5-33.4-13.3-52.4-13.3c-1.8,0-3.7,0-5.5,0.1c-0.7,0-1.5,0.1-2.2,0.1
					c-2,0.1-3.9,0.3-5.9,0.6c-0.6,0.1-1.3,0.2-1.9,0.2c-2.9,0.4-5.8,0.9-8.7,1.6c-0.8,0.2-1.7,0.4-2.5,0.6c-0.5,0.1-1,0.2-1.5,0.4
					c-0.7,0.2-1.3,0.3-1.9,0.5c-3.1,0.9-6.1,1.9-9.1,3c-0.8,0.3-1.6,0.6-2.4,1c-0.7,0.3-1.4,0.6-2.1,0.9c-0.9,0.4-1.8,0.8-2.6,1.2
					c-0.8,0.4-1.6,0.7-2.3,1.1c-1.5,0.8-3.1,1.5-4.6,2.4c-0.7,0.4-1.4,0.8-2,1.1c-0.6,0.4-1.2,0.7-1.8,1.1c-0.6,0.4-1.2,0.7-1.8,1.1
					c-0.3,0.2-0.7,0.4-1,0.6c-0.7,0.5-1.4,0.9-2.1,1.4c-0.7,0.5-1.4,1-2.1,1.5c-7.6,5.5-14.5,11.9-20.5,19.1c-0.3,0.4-0.7,0.8-1,1.2
					c-1.3,1.6-2.5,3.2-3.7,4.8c-0.5,0.6-0.9,1.3-1.4,1.9c-0.3,0.4-0.5,0.8-0.8,1.2c-0.4,0.6-0.8,1.2-1.2,1.8
					c-0.5,0.9-1.1,1.7-1.6,2.6c-0.3,0.5-0.6,1-0.9,1.5c-0.5,0.9-1,1.8-1.5,2.7c-0.4,0.8-0.8,1.5-1.2,2.3c-0.2,0.5-0.5,0.9-0.7,1.4
					c-0.3,0.7-0.7,1.3-1,2c-1.7,3.7-3.3,7.5-4.6,11.4c-0.3,0.9-0.6,1.7-0.8,2.6c-0.5,1.7-1,3.5-1.5,5.2c-0.2,0.9-0.4,1.7-0.7,2.6
					c-0.4,1.7-0.7,3.4-1,5c-0.5,2.8-0.9,5.7-1.2,8.5c-0.2,1.8-0.3,3.6-0.4,5.5c-0.1,1.9-0.1,3.8-0.1,5.8c0,1,0,2,0,3.1
					c0,0.9,0.1,1.8,0.1,2.7c0,1,0.1,1.9,0.1,2.8c0.1,1.1,0.1,2.2,0.2,3.3c0.1,1,0.2,2,0.3,3.1c0.2,1.9,0.4,3.7,0.7,5.6
					c0.1,1.1,0.3,2.2,0.5,3.2v0c0.5,3.2,1.1,6.4,1.8,9.5c0.2,0.9,0.4,1.7,0.6,2.6c0.2,1,0.5,1.9,0.7,2.9c0.3,1,0.5,1.9,0.8,2.9
					c0.3,1,0.6,1.9,0.9,2.8c0.9,2.8,1.8,5.6,2.9,8.4c0.8,2.3,1.7,4.5,2.7,6.7c1,2.2,2,4.4,3,6.6c2.1,4.3,4.4,8.5,6.9,12.6
					c0.6,1,1.2,2,1.9,3c0.5,0.9,1.1,1.8,1.7,2.6c0.2,0.2,0.3,0.5,0.5,0.7c0.6,0.9,1.2,1.7,1.8,2.5c0.7,1,1.4,1.9,2.1,2.9
					c0.7,0.9,1.3,1.7,2,2.6c4.5,5.7,9.4,11,14.6,16c21.8,20.7,50,35,81.2,39.6c7.3,1.1,14.7,1.6,22.3,1.6c14.8,0,29.2-2.2,42.7-6.2
					C359.9,322.9,401.8,275.9,410.8,218.1z"/>
				<path class="st4" d="M412.2,194.9c0,1.6,0,3.2-0.1,4.7v0.3c0,1.1-0.1,2.1-0.1,3.2c0,0.1,0,0.3,0,0.4c0,0.8-0.1,1.6-0.1,2.3
					c-0.2,4.1-0.6,8.2-1.1,12.2c-9,57.8-50.8,104.8-105.9,121c-13.5,4-27.9,6.2-42.7,6.2c-7.6,0-15-0.6-22.3-1.6
					c-31.2-4.6-59.4-18.9-81.2-39.6c-5.2-5-10.1-10.3-14.6-16c-0.7-0.9-1.4-1.7-2-2.6c-0.7-1-1.4-1.9-2.1-2.9
					c-0.6-0.8-1.2-1.7-1.8-2.5c-0.2-0.2-0.3-0.5-0.5-0.7c-0.6-0.9-1.2-1.7-1.7-2.6c-0.7-1-1.3-2-1.9-3c-2.5-4.1-4.8-8.3-6.9-12.6
					c-1.1-2.2-2.1-4.4-3-6.6c-0.9-2.2-1.9-4.5-2.7-6.7c-1-2.8-2-5.6-2.9-8.4c-0.3-0.9-0.6-1.9-0.9-2.8c-0.3-1-0.5-1.9-0.8-2.9
					c-0.2-1-0.5-1.9-0.7-2.9c-0.2-0.9-0.4-1.7-0.6-2.6c-0.7-3.1-1.3-6.3-1.8-9.5v0c-0.2-1.1-0.3-2.1-0.5-3.2
					c-0.3-1.9-0.5-3.7-0.7-5.6c-0.1-1-0.2-2-0.3-3.1c-0.1-1.1-0.1-2.2-0.2-3.3c-0.1-0.9-0.1-1.9-0.1-2.8c3,58,51,104.1,109.7,104.1
					c19,0,36.8-4.8,52.4-13.3c0.3-0.1,0.5-0.3,0.8-0.5c0.6-0.3,1.2-0.7,1.7-1c1-0.6,2.1-1.2,3.1-1.9c35.5-21.6,58.9-55.7,67.9-93.3
					c7-29.2,5.4-60.6-6.1-89.8c0,0,0,0,0,0c-2.7-6.9-6-13.8-9.8-20.4c-7.4-12.9-16.5-24.2-26.8-33.9
					C263.1,11.1,201.3-1.6,146.6,19.8c1.4-0.6,2.9-1.2,4.4-1.8c2.9-1.2,5.9-2.3,8.8-3.3c1.5-0.5,3-1,4.5-1.5c1.5-0.5,3-0.9,4.6-1.4
					c1-0.3,2-0.6,3-0.8c5.1-1.4,10.3-2.6,15.6-3.5c1.6-0.3,3.2-0.5,4.8-0.8c1.7-0.3,3.4-0.5,5.1-0.7c3.1-0.4,6.3-0.7,9.4-1
					c4.9-0.4,9.8-0.6,14.8-0.6c1.5,0,3,0,4.6,0.1c0.8,0,1.5,0,2.3,0.1c1,0,1.9,0.1,2.8,0.1c0.2,0,0.4,0,0.6,0c1.3,0.1,2.6,0.1,4,0.2
					c0.5,0,0.9,0.1,1.4,0.1c1,0.1,2.1,0.2,3.1,0.3c1.2,0.1,2.3,0.2,3.5,0.4c0.1,0,0.2,0,0.3,0c1.3,0.1,2.6,0.3,3.9,0.5
					c0.3,0,0.7,0.1,1,0.1c1.1,0.1,2.2,0.3,3.3,0.5c0.4,0.1,0.9,0.1,1.3,0.2c0.9,0.1,1.8,0.3,2.7,0.5c0.9,0.2,1.7,0.3,2.6,0.5
					c0.6,0.1,1.2,0.2,1.9,0.4c1.3,0.3,2.6,0.5,3.8,0.8c0,0,0.1,0,0.1,0c1.5,0.3,3.1,0.7,4.6,1.1c1.2,0.3,2.5,0.7,3.7,1
					c9.7,2.7,19.2,6.2,28.2,10.4c0.7,0.3,1.5,0.7,2.2,1c0.9,0.4,1.7,0.8,2.6,1.2c0.3,0.1,0.5,0.2,0.8,0.4c1.2,0.6,2.3,1.2,3.5,1.8
					c1,0.5,2,1,2.9,1.6c1.1,0.6,2.2,1.2,3.3,1.9c1,0.6,2,1.2,3,1.7c3.1,1.8,6,3.7,9,5.7c2.2,1.5,4.4,3,6.5,4.6
					c1.3,1,2.6,1.9,3.8,2.9c1.1,0.9,2.2,1.7,3.3,2.6c1.1,0.9,2.2,1.8,3.2,2.7c1,0.9,2,1.7,3,2.6c0.1,0.1,0.2,0.2,0.3,0.3
					c0.8,0.7,1.5,1.4,2.2,2.1c0.5,0.4,1,0.9,1.4,1.3c0.8,0.7,1.5,1.4,2.3,2.2c0.1,0.1,0.1,0.1,0.2,0.2c0.8,0.8,1.7,1.6,2.5,2.5
					c1.4,1.4,2.7,2.7,4,4.1c0.7,0.8,1.5,1.6,2.2,2.4c1.2,1.3,2.3,2.6,3.5,4c1.6,1.9,3.1,3.7,4.6,5.6c0.9,1.2,1.8,2.3,2.7,3.5
					c0.7,0.9,1.3,1.8,2,2.7c1,1.4,2,2.8,2.9,4.2c0.8,1.2,1.6,2.3,2.4,3.5c0.6,0.9,1.2,1.9,1.8,2.8c1.7,2.7,3.3,5.4,4.8,8.2
					c0.7,1.2,1.4,2.4,2,3.6c0.7,1.2,1.3,2.4,1.9,3.6c0.1,0.2,0.2,0.3,0.2,0.5c0.6,1.1,1.1,2.3,1.7,3.5c0,0.1,0.1,0.1,0.1,0.2
					l1.6,3.4c0.2,0.5,0.4,0.9,0.6,1.4c0.4,1,0.8,1.9,1.2,2.8c2.2,5.3,4.2,10.7,5.9,16.2c0.4,1.4,0.9,2.8,1.3,4.2
					c0.4,1.2,0.7,2.5,1,3.7c0.1,0.3,0.2,0.5,0.2,0.8c0.2,0.8,0.4,1.6,0.6,2.4c0.2,0.8,0.4,1.7,0.6,2.5c0.3,1.3,0.6,2.7,0.9,4
					c0.3,1.2,0.5,2.3,0.7,3.5c0,0.1,0,0.1,0,0.2c0.2,1.1,0.4,2.3,0.6,3.4c0.1,0.8,0.3,1.5,0.4,2.3c0.1,0.8,0.3,1.6,0.4,2.5
					c0.1,0.3,0.1,0.7,0.1,1c0.2,1.2,0.3,2.4,0.5,3.7c0.5,4,0.9,8.1,1.1,12.2c0.1,0.8,0.1,1.5,0.1,2.3c0,0.1,0,0.3,0,0.4
					c0.1,1.1,0.1,2.1,0.1,3.2v0.3C412.1,191.8,412.2,193.4,412.2,194.9z"/>
				<path class="st0" d="M347.6,194.9c-9,37.6-32.5,71.7-67.9,93.3c31.1-19.4,51.8-53.9,51.8-93.3c0-39.4-20.7-73.9-51.8-93.3
					c-1-0.7-2.1-1.3-3.1-1.9c-0.6-0.3-1.2-0.7-1.7-1c-0.3-0.2-0.6-0.3-0.8-0.5c-36.6-20.2-78.1-23.5-115.3-12.5
					c-28.9,8.5-55.2,25.7-74.8,50.4c-4.6,5.8-8.8,12-12.7,18.6c-7.4,12.9-12.7,26.4-16.1,40.1c-13.4,56,6.4,115.9,52.3,152.5
					c-0.1-0.1-0.2-0.2-0.3-0.2c-1.3-1-2.6-2-3.8-2.9c-0.2-0.1-0.4-0.3-0.6-0.4c-1-0.8-2.1-1.7-3.1-2.5c-0.6-0.5-1.2-1-1.7-1.5
					c-0.8-0.6-1.5-1.3-2.3-2c-0.4-0.3-0.8-0.7-1.2-1c-0.7-0.6-1.5-1.3-2.2-2c-0.7-0.6-1.4-1.3-2.1-1.9c-1.1-1.1-2.2-2.1-3.3-3.2
					c-1.1-1.1-2.1-2.2-3.2-3.3c-0.7-0.8-1.4-1.5-2.1-2.3c-0.6-0.6-1.1-1.2-1.6-1.8c-0.3-0.4-0.7-0.7-1-1.1c-0.8-0.9-1.6-1.8-2.3-2.7
					c-0.4-0.4-0.7-0.8-1.1-1.3c-0.9-1.1-1.8-2.2-2.7-3.3c-0.2-0.2-0.3-0.4-0.5-0.6c-1-1.3-2-2.6-3-3.9c-2.5-3.3-4.8-6.6-7.1-10
					c-0.7-1-1.3-2.1-2-3.1c-0.3-0.4-0.5-0.8-0.8-1.2c-0.5-0.9-1.1-1.8-1.6-2.7c-0.5-0.8-0.9-1.5-1.3-2.3c-2.1-3.6-4.1-7.3-5.9-11.1
					c-0.4-0.8-0.8-1.6-1.2-2.5c-0.4-0.8-0.8-1.6-1.2-2.5c-0.4-0.8-0.8-1.7-1.1-2.5c-0.4-1-0.9-2-1.3-3c-0.5-1.2-1-2.5-1.5-3.7
					c-0.5-1.2-0.9-2.3-1.3-3.5c-0.3-0.7-0.5-1.5-0.8-2.2c-0.4-1-0.7-2-1-3c-0.3-0.8-0.5-1.6-0.8-2.3c-0.1-0.2-0.1-0.4-0.2-0.5
					c-0.3-0.8-0.5-1.6-0.8-2.4c-1-3.1-1.8-6.1-2.6-9.3c-0.3-1.2-0.6-2.5-0.9-3.7c-0.2-1-0.5-2.1-0.7-3.2c0,0,0,0,0-0.1
					c-0.2-0.8-0.4-1.7-0.5-2.5c-0.3-1.5-0.6-2.9-0.8-4.4c-0.2-0.9-0.3-1.8-0.4-2.7c-0.1-0.5-0.2-1-0.2-1.4c-0.2-0.9-0.3-1.9-0.4-2.8
					c-0.1-0.9-0.3-1.9-0.4-2.8c-0.2-1.5-0.3-2.9-0.5-4.4c-0.1-0.9-0.2-1.7-0.2-2.6c-0.1-1-0.2-2-0.2-2.9c-0.1-0.8-0.1-1.6-0.1-2.4
					c0-0.7-0.1-1.3-0.1-2v0c-0.1-1.2-0.1-2.5-0.1-3.7v-0.3c0-1.6-0.1-3.2-0.1-4.7c0-1.6,0-3.2,0.1-4.7v-0.3c0-1.2,0.1-2.5,0.1-3.7v0
					c0-0.7,0.1-1.3,0.1-2c0-0.8,0.1-1.6,0.1-2.4c0.1-1,0.1-1.9,0.2-2.9c0.1-0.9,0.1-1.9,0.2-2.8c0.1-1.4,0.3-2.9,0.5-4.3
					c0.1-0.9,0.2-1.8,0.3-2.7c0.2-1.4,0.4-2.7,0.6-4.1c0.1-1,0.3-2,0.5-3.1c0.2-1.5,0.5-3,0.8-4.5c0.1-0.7,0.3-1.4,0.4-2.1
					c0-0.1,0-0.2,0-0.2c0.2-1.1,0.5-2.2,0.7-3.2c0.3-1.4,0.7-2.8,1-4.2c0.8-3,1.6-5.9,2.5-8.8c0.2-0.7,0.4-1.4,0.7-2.2
					c0.4-1.2,0.8-2.4,1.2-3.6c0.3-1,0.7-2,1-2.9c0.2-0.6,0.4-1.2,0.7-1.8c0.4-1.1,0.8-2.2,1.3-3.3c0.5-1.4,1.1-2.9,1.7-4.3
					c1.1-2.6,2.2-5.1,3.4-7.6c0.3-0.7,0.7-1.4,1-2c1.9-3.8,3.8-7.5,5.9-11.1c0.7-1.1,1.3-2.3,2-3.4c0.2-0.4,0.4-0.8,0.7-1.2
					c0.5-0.9,1.1-1.7,1.6-2.6c0.4-0.7,0.8-1.3,1.2-1.9c0.4-0.7,0.9-1.4,1.4-2.1c2.2-3.3,4.5-6.5,6.9-9.6c0.7-0.9,1.4-1.9,2.1-2.8
					c0.2-0.2,0.3-0.4,0.5-0.6c0.9-1.1,1.7-2.2,2.7-3.3c0.3-0.4,0.7-0.9,1.1-1.3c0.8-0.9,1.5-1.8,2.3-2.7c0.3-0.4,0.7-0.8,1-1.1
					c0.5-0.6,1.1-1.2,1.6-1.8c0.7-0.8,1.4-1.5,2.1-2.3c1.1-1.1,2.1-2.2,3.2-3.3c1.1-1.1,2.2-2.1,3.3-3.2c0.7-0.7,1.4-1.3,2.1-1.9
					c0.7-0.7,1.5-1.4,2.2-2c0.4-0.4,0.8-0.7,1.2-1c0.8-0.7,1.5-1.4,2.3-2c0.6-0.5,1.1-1,1.7-1.5c1-0.9,2.1-1.7,3.1-2.5
					c0.2-0.1,0.4-0.3,0.6-0.4c1.2-1,2.5-2,3.8-2.9c2-1.5,4-2.9,6-4.4c1-0.7,2.1-1.4,3.2-2.1c0.3-0.2,0.7-0.5,1-0.7
					c1.1-0.7,2.2-1.4,3.3-2.1c0.4-0.3,0.9-0.5,1.3-0.8c1-0.6,1.9-1.2,2.9-1.7c2-1.2,4.1-2.4,6.2-3.6c1.6-0.9,3.2-1.7,4.8-2.5
					c0.1-0.1,0.2-0.1,0.3-0.2c1.6-0.8,3.2-1.6,4.8-2.3c1.7-0.8,3.4-1.6,5.1-2.3c0.1-0.1,0.3-0.1,0.4-0.2
					c54.7-21.4,116.5-8.7,158.2,30.9c10.3,9.7,19.3,21.1,26.8,33.9c3.8,6.7,7.1,13.5,9.8,20.4c0,0,0,0,0,0
					C353,134.4,354.6,165.7,347.6,194.9z"/>
			</g>
			<linearGradient id="SVGID_4_" gradientUnits="userSpaceOnUse" x1="31.1314" y1="194.949" x2="412.1543" y2="194.949">
				<stop  offset="1.891890e-02" style="stop-color:#000000"/>
				<stop  offset="0.5027" style="stop-color:#FFFFFF"/>
				<stop  offset="1" style="stop-color:#000000"/>
			</linearGradient>
			<path class="st5" d="M412.1,190.2v-0.3c0-1.1-0.1-2.1-0.1-3.2c0-0.1,0-0.3,0-0.4c0-0.8-0.1-1.6-0.1-2.3
				c-0.2-4.1-0.6-8.2-1.1-12.2c-0.1-1.2-0.3-2.4-0.5-3.7c0-0.3-0.1-0.7-0.1-1c-0.1-0.8-0.2-1.6-0.4-2.5c-0.1-0.8-0.2-1.5-0.4-2.3
				c-0.2-1.1-0.4-2.3-0.6-3.4c0-0.1,0-0.2,0-0.2c-0.2-1.2-0.4-2.3-0.7-3.5c-0.3-1.3-0.6-2.7-0.9-4c-0.2-0.9-0.4-1.7-0.6-2.5
				c-0.2-0.8-0.4-1.6-0.6-2.4c-0.1-0.3-0.1-0.5-0.2-0.8c-0.3-1.2-0.7-2.5-1-3.7c-0.4-1.4-0.8-2.8-1.3-4.2
				c-1.7-5.5-3.7-10.9-5.9-16.2c-0.4-1-0.8-1.9-1.2-2.8c-0.2-0.5-0.4-1-0.6-1.4l-1.6-3.4c0-0.1-0.1-0.1-0.1-0.2
				c-0.5-1.2-1.1-2.3-1.7-3.5c-0.1-0.2-0.2-0.4-0.2-0.5c-0.6-1.2-1.2-2.4-1.9-3.6c-0.6-1.2-1.3-2.4-2-3.6c-1.5-2.8-3.1-5.5-4.8-8.2
				c-0.6-1-1.2-1.9-1.8-2.8c-0.8-1.2-1.5-2.4-2.4-3.5c-1-1.4-1.9-2.8-2.9-4.2c-0.7-0.9-1.3-1.8-2-2.7c-0.9-1.2-1.8-2.3-2.7-3.5
				c-1.5-1.9-3.1-3.8-4.6-5.6c-1.1-1.3-2.3-2.7-3.5-4c-0.7-0.8-1.5-1.6-2.2-2.4c-1.3-1.4-2.6-2.8-4-4.1c-0.8-0.9-1.7-1.7-2.5-2.5
				c-0.1-0.1-0.1-0.2-0.2-0.2c-0.8-0.7-1.5-1.4-2.3-2.2c-0.5-0.5-1-0.9-1.4-1.3c-0.7-0.7-1.5-1.4-2.2-2.1c-0.1-0.1-0.2-0.2-0.3-0.3
				c-1-0.9-2-1.7-3-2.6c-1.1-0.9-2.2-1.8-3.2-2.7c-1.1-0.9-2.2-1.8-3.3-2.6c-1.3-1-2.5-2-3.8-2.9c-2.1-1.6-4.3-3.1-6.5-4.6
				c-2.9-2-5.9-3.9-9-5.7c-1-0.6-2-1.2-3-1.7c-1.1-0.7-2.2-1.3-3.3-1.9c-1-0.5-2-1.1-2.9-1.6c-1.2-0.6-2.3-1.2-3.5-1.8
				c-0.2-0.1-0.5-0.3-0.8-0.4c-0.9-0.4-1.7-0.8-2.6-1.2c-0.7-0.3-1.4-0.7-2.2-1c-9-4.2-18.5-7.6-28.2-10.4c-1.2-0.3-2.5-0.7-3.7-1
				c-1.5-0.4-3-0.8-4.6-1.1c0,0-0.1,0-0.1,0c-1.3-0.3-2.5-0.6-3.8-0.8c-0.6-0.1-1.2-0.3-1.9-0.4c-0.9-0.2-1.7-0.3-2.6-0.5
				c-0.9-0.2-1.8-0.3-2.7-0.5c-0.4-0.1-0.9-0.2-1.3-0.2c-1.1-0.2-2.2-0.3-3.3-0.5c-0.3-0.1-0.6-0.1-1-0.1c-1.3-0.2-2.6-0.4-3.9-0.5
				c-0.1,0-0.2,0-0.3,0c-1.2-0.1-2.3-0.3-3.5-0.4c-1-0.1-2-0.2-3.1-0.3c-0.5,0-1-0.1-1.4-0.1c-1.3-0.1-2.6-0.2-4-0.2
				c-0.2,0-0.4,0-0.6,0c-1,0-1.9-0.1-2.8-0.1c-0.8,0-1.5-0.1-2.3-0.1c-1.5,0-3-0.1-4.6-0.1c-5,0-9.9,0.2-14.8,0.6
				c-3.2,0.2-6.3,0.6-9.4,1c-1.7,0.2-3.4,0.5-5.1,0.7c-1.6,0.2-3.2,0.5-4.8,0.8c-5.3,1-10.5,2.1-15.6,3.5c-1,0.3-2,0.5-3,0.8
				c-1.5,0.4-3.1,0.9-4.6,1.4c-1.5,0.5-3,1-4.5,1.5c-3,1-5.9,2.1-8.8,3.3c-1.5,0.6-2.9,1.2-4.4,1.8c-0.2,0-0.3,0.1-0.4,0.2
				c-1.7,0.7-3.4,1.5-5.1,2.3c-1.6,0.8-3.2,1.5-4.8,2.3c-0.1,0.1-0.2,0.1-0.3,0.2c-1.6,0.8-3.2,1.6-4.8,2.5
				c-2.1,1.1-4.2,2.3-6.2,3.6c-1,0.5-1.9,1.1-2.9,1.7c-0.4,0.3-0.9,0.5-1.3,0.8c-1.1,0.7-2.2,1.4-3.3,2.1c-0.3,0.2-0.7,0.4-1,0.7
				c-1.1,0.7-2.1,1.4-3.2,2.1c-2.1,1.4-4.1,2.9-6,4.4c-1.3,1-2.6,2-3.8,2.9c-0.2,0.1-0.4,0.3-0.6,0.4c-1,0.8-2.1,1.7-3.1,2.5
				c-0.6,0.5-1.2,1-1.7,1.5c-0.8,0.6-1.5,1.3-2.3,2c-0.4,0.3-0.8,0.7-1.2,1c-0.7,0.6-1.5,1.3-2.2,2c-0.7,0.6-1.4,1.3-2.1,1.9
				c-1.1,1.1-2.2,2.1-3.3,3.2c-1.1,1.1-2.1,2.2-3.2,3.3c-0.7,0.8-1.4,1.5-2.1,2.3C81,66.4,80.5,67,80,67.6c-0.3,0.4-0.7,0.7-1,1.1
				c-0.8,0.9-1.6,1.8-2.3,2.7c-0.4,0.4-0.7,0.8-1.1,1.3c-0.9,1.1-1.8,2.2-2.7,3.3c-0.2,0.2-0.3,0.4-0.5,0.6
				c-0.7,0.9-1.4,1.8-2.1,2.8c-2.4,3.1-4.7,6.3-6.9,9.6c-0.5,0.7-0.9,1.4-1.4,2.1c-0.4,0.6-0.8,1.3-1.2,1.9
				c-0.5,0.9-1.1,1.7-1.6,2.6c-0.3,0.4-0.5,0.8-0.7,1.2c-0.7,1.1-1.4,2.3-2,3.4c-2.1,3.6-4,7.3-5.9,11.1c-0.3,0.7-0.7,1.3-1,2
				c-1.2,2.5-2.3,5-3.4,7.6c-0.6,1.4-1.2,2.8-1.7,4.3c-0.4,1.1-0.9,2.2-1.3,3.3c-0.2,0.6-0.4,1.2-0.7,1.8c-0.4,1-0.7,2-1,2.9
				c-0.4,1.2-0.8,2.4-1.2,3.6c-0.2,0.7-0.5,1.4-0.7,2.2c-0.9,2.9-1.7,5.8-2.5,8.8c-0.4,1.4-0.7,2.8-1,4.2c-0.2,1.1-0.5,2.2-0.7,3.2
				c0,0.1,0,0.1,0,0.2c-0.2,0.7-0.3,1.4-0.4,2.1c-0.3,1.5-0.6,3-0.8,4.5c-0.2,1-0.4,2-0.5,3.1c-0.2,1.4-0.4,2.7-0.6,4.1
				c-0.1,0.9-0.2,1.8-0.3,2.7c-0.2,1.4-0.3,2.9-0.5,4.3c-0.1,0.9-0.2,1.8-0.2,2.8c-0.1,1-0.2,1.9-0.2,2.9c-0.1,0.8-0.1,1.6-0.1,2.4
				c0,0.7-0.1,1.3-0.1,2v0c-0.1,1.2-0.1,2.5-0.1,3.7v0.3c0,1.6-0.1,3.2-0.1,4.7c0,1.6,0,3.2,0.1,4.7v0.3c0,1.2,0.1,2.5,0.1,3.7v0
				c0,0.7,0.1,1.3,0.1,2c0,0.8,0.1,1.6,0.1,2.4c0.1,1,0.1,2,0.2,2.9c0.1,0.9,0.1,1.7,0.2,2.6c0.1,1.5,0.3,3,0.5,4.4
				c0.1,1,0.2,1.9,0.4,2.8c0.1,0.9,0.2,1.9,0.4,2.8c0.1,0.5,0.1,1,0.2,1.4c0.1,0.9,0.3,1.8,0.4,2.7c0.2,1.5,0.5,2.9,0.8,4.4
				c0.2,0.8,0.3,1.7,0.5,2.5c0,0,0,0.1,0,0.1c0.2,1.1,0.4,2.1,0.7,3.2c0.3,1.3,0.6,2.5,0.9,3.7c0.8,3.1,1.6,6.2,2.6,9.3
				c0.2,0.8,0.5,1.6,0.8,2.4c0,0.2,0.1,0.3,0.2,0.5c0.2,0.8,0.5,1.6,0.8,2.3c0.3,1,0.7,2,1,3c0.3,0.7,0.5,1.5,0.8,2.2
				c0.4,1.2,0.9,2.3,1.3,3.5c0.5,1.2,1,2.5,1.5,3.7c0.4,1,0.8,2,1.3,3c0.4,0.8,0.7,1.7,1.1,2.5c0.4,0.8,0.8,1.6,1.2,2.5
				c0.4,0.8,0.8,1.6,1.2,2.5c1.9,3.8,3.8,7.4,5.9,11.1c0.4,0.8,0.9,1.5,1.3,2.3c0.5,0.9,1.1,1.8,1.6,2.7c0.2,0.4,0.5,0.8,0.8,1.2
				c0.7,1,1.3,2.1,2,3.1c2.3,3.4,4.6,6.8,7.1,10c1,1.3,2,2.6,3,3.9c0.2,0.2,0.3,0.4,0.5,0.6c0.9,1.1,1.7,2.2,2.7,3.3
				c0.3,0.4,0.7,0.9,1.1,1.3c0.8,0.9,1.5,1.8,2.3,2.7c0.3,0.4,0.7,0.8,1,1.1c0.5,0.6,1.1,1.2,1.6,1.8c0.7,0.8,1.4,1.5,2.1,2.3
				c1.1,1.1,2.1,2.2,3.2,3.3c1.1,1.1,2.2,2.1,3.3,3.2c0.7,0.7,1.4,1.3,2.1,1.9c0.7,0.7,1.5,1.4,2.2,2c0.4,0.4,0.8,0.7,1.2,1
				c0.8,0.7,1.5,1.4,2.3,2c0.6,0.5,1.1,1,1.7,1.5c1,0.9,2.1,1.7,3.1,2.5c0.2,0.2,0.4,0.3,0.6,0.4c1.2,1,2.5,2,3.8,2.9
				c0.1,0.1,0.2,0.1,0.3,0.2c1.9,1.4,3.8,2.8,5.7,4.1c1,0.7,2.1,1.4,3.2,2.1c0.3,0.2,0.7,0.5,1,0.7c1.1,0.7,2.2,1.4,3.3,2.1
				c0.4,0.3,0.9,0.6,1.3,0.8c1,0.6,1.9,1.2,2.9,1.7c2,1.2,4.1,2.4,6.2,3.5c1.6,0.9,3.2,1.7,4.8,2.5c0.1,0.1,0.2,0.1,0.3,0.2
				c1.6,0.8,3.2,1.6,4.8,2.3c1.7,0.8,3.4,1.6,5.1,2.3c0.1,0.1,0.3,0.1,0.4,0.2c1.4,0.6,2.9,1.2,4.4,1.8c2.9,1.2,5.9,2.3,8.8,3.3
				c1.5,0.5,3,1,4.5,1.5c1.5,0.5,3,0.9,4.6,1.4c1,0.3,2,0.6,3,0.8c5.1,1.4,10.3,2.6,15.6,3.5c1.6,0.3,3.2,0.5,4.8,0.8
				c1.7,0.3,3.4,0.5,5.1,0.7c3.1,0.4,6.3,0.7,9.4,1c4.9,0.4,9.8,0.6,14.8,0.6c1.5,0,3,0,4.6-0.1c0.8,0,1.5,0,2.3-0.1
				c1,0,1.9-0.1,2.8-0.1c0.2,0,0.4,0,0.6,0c1.3-0.1,2.6-0.1,4-0.2c0.5,0,0.9-0.1,1.4-0.1c1-0.1,2.1-0.2,3.1-0.3
				c1.2-0.1,2.3-0.2,3.5-0.4c0.1,0,0.2,0,0.3,0c1.3-0.1,2.6-0.3,3.9-0.5c0.3,0,0.7-0.1,1-0.1c1.1-0.1,2.2-0.3,3.3-0.5
				c0.4-0.1,0.9-0.1,1.3-0.2c0.9-0.1,1.8-0.3,2.7-0.5c0.9-0.2,1.7-0.3,2.6-0.5c0.6-0.1,1.2-0.2,1.9-0.4c1.3-0.3,2.6-0.5,3.8-0.8
				c0,0,0.1,0,0.1,0c1.5-0.3,3.1-0.7,4.6-1.1c1.2-0.3,2.5-0.7,3.7-1c9.7-2.7,19.2-6.2,28.2-10.4c0.7-0.3,1.5-0.7,2.2-1
				c0.9-0.4,1.7-0.8,2.6-1.2c0.3-0.1,0.5-0.2,0.8-0.4c1.2-0.6,2.3-1.2,3.5-1.8c1-0.5,2-1,2.9-1.6c1.1-0.6,2.2-1.2,3.3-1.9
				c1-0.6,2-1.2,3-1.7c3.1-1.8,6-3.7,9-5.7c2.2-1.5,4.4-3,6.5-4.6c1.3-0.9,2.6-1.9,3.8-2.9c1.1-0.9,2.2-1.7,3.3-2.6
				c1.1-0.9,2.2-1.8,3.2-2.7c1-0.9,2-1.7,3-2.6c0.1-0.1,0.2-0.2,0.3-0.3c0.8-0.7,1.5-1.4,2.2-2.1c0.5-0.4,1-0.9,1.4-1.3
				c0.8-0.7,1.5-1.4,2.3-2.2c0.1,0,0.1-0.1,0.2-0.2c0.8-0.8,1.7-1.6,2.5-2.5c1.4-1.3,2.7-2.7,4-4.1c0.7-0.8,1.5-1.6,2.2-2.4
				c1.2-1.3,2.3-2.6,3.5-4c1.6-1.9,3.1-3.7,4.6-5.6c0,0,0.1-0.1,0.1-0.1c1.7-2.2,3.5-4.5,5.1-6.8c0.8-1.1,1.6-2.3,2.4-3.5
				c0.8-1.2,1.6-2.3,2.4-3.5c0.8-1.2,1.5-2.4,2.3-3.6c0.7-1.1,1.4-2.2,2-3.4c0.1-0.2,0.2-0.3,0.3-0.5c0.7-1.2,1.3-2.3,2-3.5
				c0.7-1.2,1.4-2.5,2-3.7c0.7-1.3,1.3-2.5,2-3.8c0.6-1.3,1.3-2.5,1.9-3.8c0.6-1.3,1.2-2.6,1.8-3.9c0.6-1.3,1.1-2.6,1.7-3.9
				c0.6-1.3,1.1-2.7,1.6-4c1.1-2.7,2.1-5.4,3-8.1c0.5-1.4,0.9-2.7,1.3-4.1c0.4-1.4,0.9-2.8,1.3-4.2c0.4-1.4,0.8-2.7,1.1-4.1
				c0,0,0-0.1,0-0.1c0.3-1,0.5-2,0.8-3c0.2-0.7,0.4-1.4,0.5-2.2c0.3-1.3,0.6-2.6,0.9-3.9c0.3-1.2,0.5-2.5,0.8-3.8
				c0.2-1.2,0.4-2.4,0.7-3.6c0.1-0.7,0.2-1.4,0.3-2.1c0.2-1,0.3-1.9,0.4-2.8c0-0.2,0.1-0.4,0.1-0.6c0.2-1.3,0.3-2.6,0.5-3.9
				c0.5-4,0.9-8.1,1.1-12.2c0.1-0.8,0.1-1.5,0.1-2.3c0-0.1,0-0.3,0-0.4c0.1-1.1,0.1-2.1,0.1-3.2v-0.3c0-1.6,0.1-3.1,0.1-4.7
				C412.2,193.4,412.1,191.8,412.1,190.2z M221.6,344.8c-82.6,0-149.8-67.2-149.8-149.8c0-20.8,4.3-40.7,12-58.7
				c22.9-53.5,76-91.1,137.8-91.1c48.9,0,92.4,23.6,119.8,60c0,0,0,0,0,0c18.8,25,30,56.1,30,89.8c0,76.4-57.6,139.7-131.6,148.7
				C233.9,344.4,227.8,344.8,221.6,344.8z"/>
		</g>
	</g>
</g>
</svg>
