<?xml version="1.0" encoding="utf-8"?>
<!-- Generator: Adobe Illustrator 25.0.1, SVG Export Plug-In . SVG Version: 6.00 Build 0)  -->
<svg version="1.1" id="Layer_1" xmlns="http://www.w3.org/2000/svg" xmlns:xlink="http://www.w3.org/1999/xlink" x="0px" y="0px"
	 viewBox="0 0 512 512" style="enable-background:new 0 0 512 512;" xml:space="preserve">
<style type="text/css">
	.st0{fill:#FFCD39;}
	.st1{fill:#FFC107;}
</style>
<g>
	<g>
		<path class="st0" d="M256,512c-5.7,0-10.9-3.2-13.4-8.2l-44.9-88.3c-42.3-12.1-80.4-37.6-107.9-72.4
			C59.9,305.4,44.2,260,44.2,211.8C44.2,95,139.2,0,256,0s211.8,95,211.8,211.8c0,48.2-15.8,93.6-45.6,131.3
			c-27.5,34.7-65.6,60.3-107.9,72.4l-44.9,88.3C266.9,508.8,261.7,512,256,512L256,512z"/>
	</g>
	<path class="st1" d="M256,0v512c5.7,0,10.9-3.2,13.4-8.2l44.9-88.3c42.3-12.1,80.4-37.6,107.9-72.4c29.8-37.7,45.6-83.1,45.6-131.3
		C467.8,95,372.8,0,256,0L256,0z"/>
</g>
</svg>
