<?xml version="1.0" encoding="utf-8"?>
<!-- Generator: Adobe Illustrator 25.0.1, SVG Export Plug-In . SVG Version: 6.00 Build 0)  -->
<svg version="1.1" xmlns="http://www.w3.org/2000/svg" xmlns:xlink="http://www.w3.org/1999/xlink" x="0px" y="0px"
	 viewBox="0 0 512 512" style="enable-background:new 0 0 512 512;" xml:space="preserve">
<style type="text/css">
	.st0{fill:#E7EBEA;}
	.st1{fill:#D8DEDE;}
	.st2{fill:#FFC107;}
	.st3{fill:#BF9105;}
	.st4{fill:#393E46;}
</style>
<g id="Layer_1">
	<g id="Layer_2_1_">
		<path class="st0" d="M494.9,220.8c0,113.1-91.7,204.8-204.8,204.8c-5.8,0-11.4,0-17.1,0c-113.1,0-204.8-91.8-204.7-204.9
			S160,16,273.1,16h17.1C403.3,16.1,494.9,107.8,494.9,220.8z"/>
		<path class="st1" d="M307.2,425c-5.6,0-11.2,0-17.1,0c-113.1,0-204.8-91.7-204.8-204.8C85.3,107,177,15.4,290.1,15.4h17.1
			c-112.7,9.5-196.4,108.5-186.9,221.2c8.4,99.6,87.4,178.6,186.9,186.9V425z"/>
		<path class="st2" d="M357.6,208c-5.8,31-20.4,59.7-41.9,82.7c-12.6,14.1-34.2,15.4-48.3,2.9c-1-0.9-2-1.9-2.9-2.9
			c-25-26-40.1-60-42.6-96c-0.3-31.3,20.7-58.9,51-66.7c7.1-2,14.5-2.7,21.9-2.2c39.1,4.2,67.4,39.3,63.2,78.4
			C358,205.4,357.8,206.7,357.6,208z"/>
		<circle class="st0" cx="290.1" cy="193.6" r="17.1"/>
		<path class="st3" d="M307.5,297.1c-14.3,8.2-32.4,5.1-43.2-7.4c-25-26-40.1-60-42.6-96c0-37.8,30.7-68.5,68.5-68.5
			c1.4,0,2.9,0,4.3,0.1c4.2,0.3,8.3,1.1,12.3,2.2c-30.3,7.9-51.3,35.5-50.9,66.9c2.5,36,17.5,70,42.6,96
			C301.2,293.2,304.2,295.4,307.5,297.1z"/>
		<g>
			<path class="st4" d="M290.4,318.7c-9,0-17.8-2.4-25.6-6.9c-5.2-2.9-9.8-6.7-13.6-11.2c-27.4-28.8-43.9-66.4-46.4-106.1
				c0-38.9,26.3-72.9,64-82.6c31.7-8.7,65.6,2.4,86.1,28.2c15.9,19.5,23.1,44.7,19.8,69.6c-6.3,34.3-22.3,66.1-46.1,91.7
				C319,312.5,305.1,318.8,290.4,318.7L290.4,318.7z M290.4,142.7c-4.4,0-8.7,0.6-13,1.8c-22.6,5.8-38.5,26.2-38.4,49.6
				c2.7,31.6,16.2,61.3,38.2,84c6.5,7,17.4,7.5,24.4,1c0.4-0.3,0.7-0.7,1-1c19.3-20.6,32.5-46.2,37.9-73.9
				c2.1-15.6-2.4-31.3-12.3-43.5c-8.8-10.1-21.4-16.1-34.7-16.6L290.4,142.7z"/>
			<path class="st4" d="M290.1,0C167.6,0,68.3,99.2,68.2,221.7c0,53,19,104.3,53.5,144.6L5,482.9c-7.1,6.2-7.8,17.1-1.6,24.2
				c6.2,7.1,17.1,7.8,24.2,1.6c0.6-0.5,1.1-1,1.6-1.6l128-128c6.7-6.7,6.7-17.5,0-24.2c-73.3-73.6-73-192.6,0.6-265.9
				s192.6-73,265.9,0.6s73,192.6-0.6,265.9c-58.3,58.1-147.6,71.5-220.4,33c-8.2-4.8-18.7-2-23.4,6.2c-4.8,8.2-2,18.7,6.2,23.4
				c0.4,0.2,0.8,0.4,1.2,0.6c31.9,17,67.5,25.8,103.7,25.8c122.7,0,222.2-99.6,222.2-222.3C512.4,99.4,412.8,0,290.1,0z"/>
		</g>
	</g>
</g>
<g id="Layer_2">
</g>
</svg>
